#!OML:ASF F:\VICON\USERDATA\INSTALL\Justin_Nancy\Justin_Nancy.ASF
:FULLY-SPECIFIED
:DEGREES
49
root -8.72166 17.5293 -24.9611 0.448816 -3.44149 -3.83399
lowerback 7.9993 0.662136 2.38271
upperback 0.526484 1.20195 2.60558
thorax -3.9498 0.574976 1.22562
lowerneck -16.5055 -3.4121 -9.31837
upperneck 17.7445 -3.58217 6.05966
head 8.53185 -1.70334 3.14873
rclavicle 3.97569e-016 1.15295e-014
rhumerus -23.9983 -7.60692 -81.6983
rradius 33.2733
rwrist 5.08338
rhand -13.9328 9.20154
rfingers 7.12502
rthumb 12.1939 -20.423
lclavicle 3.97569e-016 1.15295e-014
lhumerus -31.987 13.9124 82.2827
lradius 25.677
lwrist -9.8683
lhand -17.3722 21.5043
lfingers 7.12502
lthumb 8.8762 51.2976
rfemur -2.07125 2.29268 30.983
rtibia 19.1783
rfoot -12.572 -5.48955
rtoes 5.00334
lfemur -29.4808 0.730707 -15.3167
ltibia 48.7534
lfoot -7.26882 6.1744
ltoes -8.94744
50
root -8.71774 17.5032 -24.8285 0.480028 -3.43594 -3.91714
lowerback 8.20129 0.661948 2.55085
upperback 0.523049 1.22599 2.61039
thorax -4.06338 0.582968 1.1314
lowerneck -16.4878 -3.69066 -9.28429
upperneck 17.2622 -3.90679 5.80407
head 8.38808 -1.87574 3.00895
rclavicle 4.87022e-015 3.97569e-016
rhumerus -23.6093 -7.2102 -81.7471
rradius 33.6085
rwrist 4.7712
rhand -13.9714 9.23392
rfingers 7.12502
rthumb 12.1566 -20.3929
lclavicle 4.87022e-015 3.97569e-016
lhumerus -31.9872 14.4288 82.1884
lradius 25.4806
lwrist -9.9154
lhand -17.4625 21.3436
lfingers 7.12502
lthumb 8.78908 51.1406
rfemur -1.48865 2.06164 31.0761
rtibia 19.0631
rfoot -12.9398 -5.5169
rtoes 2.80529
lfemur -29.6096 0.400486 -15.1736
ltibia 46.5525
lfoot -7.63059 6.51355
ltoes -7.43336
51
root -8.7185 17.5003 -24.6818 0.692891 -3.41745 -3.79792
lowerback 7.94157 0.707745 2.49601
upperback 0.494303 1.26827 2.52685
thorax -3.9469 0.60514 1.07341
lowerneck -16.804 -3.5715 -9.12957
upperneck 17.7564 -3.74984 5.71577
head 8.5935 -1.80016 2.97608
rclavicle -1.15792e-014 -1.98785e-015
rhumerus -23.3619 -6.88997 -81.8326
rradius 34.0349
rwrist 4.44038
rhand -13.9996 9.02782
rfingers 7.12502
rthumb 12.1295 -20.6006
lclavicle -1.15792e-014 -1.98785e-015
lhumerus -32.1089 14.5042 82.1815
lradius 25.3941
lwrist -9.85363
lhand -17.6238 22.3673
lfingers 7.12502
lthumb 8.63343 52.1708
rfemur -1.02758 1.80657 30.9214
rtibia 18.8228
rfoot -13.2582 -5.44745
rtoes 2.2493
lfemur -29.8271 0.049579 -15.2506
ltibia 44.1913
lfoot -7.82493 6.83052
ltoes -5.26034
52
root -8.71892 17.507 -24.5277 0.970442 -3.93104 -3.88267
lowerback 7.64852 0.882584 2.59439
upperback 0.386683 1.49992 2.50558
thorax -3.89167 0.718227 0.974175
lowerneck -16.4404 -3.36212 -8.89885
upperneck 17.6404 -3.51167 5.53169
head 8.46188 -1.69549 2.90651
rclavicle -1.49089e-016 -9.14409e-015
rhumerus -23.3198 -6.44955 -81.9269
rradius 34.4881
rwrist 4.18708
rhand -14.0024 8.9659
rfingers 7.12502
rthumb 12.1268 -20.6627
lclavicle -1.49089e-016 -9.14409e-015
lhumerus -32.4538 14.434 82.1135
lradius 25.3319
lwrist -9.63009
lhand -17.6984 23.0895
lfingers 7.12502
lthumb 8.56137 52.896
rfemur -0.507465 2.06777 30.9776
rtibia 18.4535
rfoot -13.5152 -5.31803
rtoes 2.45137
lfemur -29.9142 0.0273298 -15.05
ltibia 41.6986
lfoot -7.64481 7.07421
ltoes -4.82489
53
root -8.71475 17.5031 -24.3823 1.09794 -4.39619 -4.02832
lowerback 8.00871 0.97391 2.66181
upperback 0.111399 1.65873 2.60547
thorax -4.38165 0.791098 1.01495
lowerneck -16.131 -3.36467 -8.95986
upperneck 17.4175 -3.48735 5.36696
head 8.32847 -1.70716 2.86303
rclavicle 1.26974e-014 2.38542e-014
rhumerus -23.4336 -5.94196 -81.9066
rradius 34.8398
rwrist 4.04262
rhand -13.9634 9.1767
rfingers 7.12502
rthumb 12.1644 -20.4496
lclavicle 1.26974e-014 2.38542e-014
lhumerus -33.1536 14.553 82.0767
lradius 25.459
lwrist -9.32501
lhand -17.4704 23.0971
lfingers 7.12502
lthumb 8.78142 52.8944
rfemur 0.241601 2.34686 31.0789
rtibia 17.9336
rfoot -13.6197 -5.25241
rtoes 3.26938
lfemur -29.8347 -0.161133 -14.7549
ltibia 39.1353
lfoot -7.1905 7.23366
ltoes -5.94782
54
root -8.70804 17.4973 -24.2371 1.12416 -4.50786 -3.87825
lowerback 7.49177 1.0049 2.6877
upperback 0.537898 1.65724 2.50163
thorax -3.64387 0.797288 0.904717
lowerneck -16.8601 -3.40012 -9.25416
upperneck 17.6482 -3.46456 5.68451
head 8.54564 -1.67558 3.02082
rclavicle 6.4605e-016 7.55382e-015
rhumerus -22.3296 -5.78493 -82.0857
rradius 34.9367
rwrist 3.97767
rhand -14.1746 9.19787
rfingers 7.12502
rthumb 11.9607 -20.4404
lclavicle 6.4605e-016 7.55382e-015
lhumerus -32.5413 15.1538 82.0708
lradius 25.0971
lwrist -9.80033
lhand -17.577 22.1429
lfingers 7.12502
lthumb 8.67853 51.9445
rfemur 1.02046 2.19177 30.8436
rtibia 17.3967
rfoot -13.7101 -5.19702
rtoes 3.32564
lfemur -29.7184 -0.643255 -14.8096
ltibia 36.53
lfoot -6.73048 7.31177
ltoes -7.48685
55
root -8.70464 17.4905 -24.089 1.22711 -4.56311 -4.00453
lowerback 7.32354 1.01558 2.91021
upperback 0.591537 1.67897 2.48116
thorax -3.48696 0.80621 0.76024
lowerneck -17.325 -3.32705 -9.36755
upperneck 18.2928 -3.34681 5.86138
head 8.84361 -1.60964 3.12132
rclavicle -7.55382e-015 -4.77083e-015
rhumerus -21.864 -5.61422 -82.209
rradius 35.0567
rwrist 3.86609
rhand -14.2868 9.48968
rfingers 7.12502
rthumb 11.8526 -20.1549
lclavicle -7.55382e-015 -4.77083e-015
lhumerus -32.5248 15.4631 81.9535
lradius 24.7694
lwrist -10.0851
lhand -17.7255 21.6546
lfingers 7.12502
lthumb 8.53525 51.4621
rfemur 1.66957 2.20537 30.9747
rtibia 16.9503
rfoot -13.7145 -5.33416
rtoes 3.65941
lfemur -29.6588 -1.39554 -14.4577
ltibia 33.9495
lfoot -6.10104 7.5264
ltoes -8.87233
